# xmcd CD database file
#
# Track frame offsets:
#	150
#	11993
#	23618
#	33542
#	47219
#	59219
#	73409
#	87935
#	101477
#	116069
#	129479
#	141473
#	153785
#	166428
#	179178
#
# Disc length: 2563 seconds
#
# Revision: 0
# Processed by: cddbd v1.5.2PL0 Copyright (c) Steve Scherf et al.
# Submitted via: CDex 1.51
#
DISCID=e30a010f
DTITLE=Various Artist - Encyclopaedia Of Music - Best of Country (Volume 2)
DYEAR=2004
DGENRE=Country
TTITLE0=Hank Williams - Take These Chains From My Heart
TTITLE1=Tennessee Ernie Ford - Shotgun Boogie
TTITLE2=Margaret Whiting and Jimmy Wakely - Slipping Around
TTITLE3=Patti Page - Tennessee Waltz
TTITLE4=Eddy Arnold - Texarkana Baby
TTITLE5=Slim Whitman - Indian Love Call
TTITLE6=Ernest Tubb - Soldier's Last Letter
TTITLE7=Pee Wee King - Slow Poke
TTITLE8=Red Foley - Old Shep
TTITLE9=Merle Travis - So Round, So Firm, So Fully Packed
TTITLE10=Hank Snow - Two Timin' Woman
TTITLE11=Leon Payne - I Love You Because
TTITLE12=Tex Ritter - I'm Wastin' My Tears On You
TTITLE13=Roy Rogers - Blue Shadows On TheTrail
TTITLE14=Vaughn Monroe - Riders In The Sky ( A Cowboy Legend)
EXTD=YEAR: 2004
EXTT0=
EXTT1=
EXTT2=
EXTT3=
EXTT4=
EXTT5=
EXTT6=
EXTT7=
EXTT8=
EXTT9=
EXTT10=
EXTT11=
EXTT12=
EXTT13=
EXTT14=
PLAYORDER=
